<?xml version="1.0" encoding="UTF-8" standalone="no"?>
<svg
   version="1.1"
   id="ntnulogo"
   width="354.90776633502mm"
   height="37.632969mm"
   viewBox="0 0 1006.0356442916 106.67590795627"
   sodipodi:docname="phpUZlX2i"
   xmlns:inkscape="http://www.inkscape.org/namespaces/inkscape"
   xmlns:sodipodi="http://sodipodi.sourceforge.net/DTD/sodipodi-0.dtd"
   xmlns="http://www.w3.org/2000/svg"
   xmlns:svg="http://www.w3.org/2000/svg">
  <sodipodi:namedview
     id="namedview14"
     pagecolor="#ffffff"
     bordercolor="#666666"
     borderopacity="1.0"
     inkscape:pageshadow="2"
     inkscape:pageopacity="0.0"
     inkscape:pagecheckerboard="0"
     inkscape:document-units="mm" />
  <defs
     id="defs" />
  <g
     transform="matrix(2,0,0,2,0,1.1437865)"
     id="g">
    <path
       d="M 33.081001,17.082001 H 11.024 v 22.062 h 22.057001 z m 0,33.084999 H 11.024 C 4.935,50.167 0,45.23 0,39.144001 v -22.062 C 0,10.998 4.935,6.062 11.024,6.062 h 22.057001 c 6.087998,0 11.022,4.936 11.022,11.020001 v 22.062 c 0,6.085999 -4.934002,11.022999 -11.022,11.022999 z"
       stroke="none"
       stroke-width="1"
       stroke-linecap="butt"
       stroke-linejoin="miter"
       stroke-miterlimit="4"
       stroke-opacity="1"
       transform="matrix(1,0,0,-1,0,53.570301)"
       fill="#ffffff"
       fill-rule="nonzero"
       fill-opacity="1"
       id="logo-firkant" />
    <path
       d="m 0,0 c -4.997,0 -9.046,-4.054 -9.046,-9.049 0,-4.998 4.049,-9.045999 9.046,-9.045999 4.996,0 9.046,4.047999 9.046,9.045999 C 9.046,-4.054 4.996,0 0,0 Z"
       stroke="none"
       stroke-width="1"
       stroke-linecap="butt"
       stroke-linejoin="miter"
       stroke-miterlimit="4"
       stroke-opacity="1"
       transform="matrix(1,0,0,-1,21.978201,16.333)"
       fill="#ffffff"
       fill-rule="nonzero"
       fill-opacity="1"
       id="logo-runding" />
    <path
       d="M 0,0 21.479,-31.225 V -7.2 l -0.062,5.714 H 14.962 V 0 H 28.805 V -1.486 H 23.466 L 23.404,-7.2 V -44.386002 L 22.411,-44.696999 -6.394,-2.792 v -33.649002 l 0.061,-5.896 H 0.308 V -43.827 h -14.337 v 1.489998 h 5.71 l 0.061,5.896 V -7.2 l -0.061,5.714 h -5.71 V 0 Z"
       stroke="none"
       stroke-width="1"
       stroke-linecap="butt"
       stroke-linejoin="miter"
       stroke-miterlimit="4"
       stroke-opacity="1"
       transform="matrix(1,0,0,-1,74.955803,3.4502)"
       fill="#ffffff"
       fill-rule="nonzero"
       fill-opacity="1"
       id="n1" />
    <path
       d="m 0,0 v -14.027 h -1.863 c -0.187,2.172 -0.436,4.901 -2.36,8.131 -2.234,3.786 -5.277,3.974 -8.256,4.098 h -3.478 l -0.06,-5.588 v -28.616998 l 0.06,-6.334004 H -9.25 V -43.827 h -20.361 v 1.489998 h 6.702 l 0.064,6.334004 V -7.386 l -0.064,5.588 h -2.855999 c -3.600001,-0.062 -6.330002,-0.062 -8.938,-4.221 -2.048,-3.292 -2.235001,-5.899 -2.360001,-8.008 h -1.799 V 0 Z"
       stroke="none"
       stroke-width="1"
       stroke-linecap="butt"
       stroke-linejoin="miter"
       stroke-miterlimit="4"
       stroke-opacity="1"
       transform="matrix(1,0,0,-1,146.5964,3.4502)"
       fill="#ffffff"
       fill-rule="nonzero"
       fill-opacity="1"
       id="t" />
    <path
       d="M 0,0 21.479,-31.225 V -7.2 l -0.061,5.714 H 14.961 V 0 H 28.804001 V -1.486 H 23.465 L 23.402,-7.2 V -44.386002 L 22.409,-44.696999 -6.396,-2.792 v -33.649002 l 0.063,-5.896 H 0.312 V -43.827 h -14.343 v 1.489998 h 5.714 l 0.058,5.896 V -7.2 l -0.058,5.714 h -5.714 V 0 Z"
       stroke="none"
       stroke-width="1"
       stroke-linecap="butt"
       stroke-linejoin="miter"
       stroke-miterlimit="4"
       stroke-opacity="1"
       transform="matrix(1,0,0,-1,164.2263,3.4502)"
       fill="#ffffff"
       fill-rule="nonzero"
       fill-opacity="1"
       id="n2" />
    <path
       d="m 0,0 v -1.486 h -6.148 l -0.059,-5.28 V -30.48 c 0.059,-6.145999 0.186,-11.979999 11.732,-11.979999 11.67,0 12.415001,5.09 12.6,10.615 V -6.766 l -0.06,5.28 H 11.797 V 0 H 25.511999 V -1.486 H 20.115 l -0.062,-5.28 v -22.598 c -0.065,-8.131998 -0.126,-15.082999 -16.204,-15.082999 -2.294,0 -7.761,0.246998 -11.235,1.675999 -5.525,2.359001 -5.649,7.200001 -5.712,13.160999 V -6.766 l -0.063,5.28 H -18.5 V 0 Z"
       stroke="none"
       stroke-width="1"
       stroke-linecap="butt"
       stroke-linejoin="miter"
       stroke-miterlimit="4"
       stroke-opacity="1"
       transform="matrix(1,0,0,-1,217.13451,3.4502)"
       fill="#ffffff"
       fill-rule="nonzero"
       fill-opacity="1"
       id="u" />
    <path
       d="m 0,0 c -0.276,0 -0.5,0.224 -0.5,0.5 v 42.859 c 0,0.277001 0.224,0.5 0.5,0.5 0.276,0 0.5,-0.222999 0.5,-0.5 V 0.5 C 0.5,0.224 0.276,0 0,0 Z"
       stroke="none"
       stroke-width="1"
       stroke-linecap="butt"
       stroke-linejoin="miter"
       stroke-miterlimit="4"
       stroke-opacity="1"
       transform="matrix(1,0,0,-1,269.759,47.291)"
       fill="#ffffff"
       fill-rule="nonzero"
       fill-opacity="1"
       id="strek" />
    <g
       aria-label="Small Satellite Lab"
       id="tekst1"
       style="font-size:24.0018px;line-height:125%;font-family:'Open Sans';text-align:left;letter-spacing:0px;word-spacing:0px;display:inline;fill:#ffffff;stroke-width:0.375001px">
      <path
         d="m 310.02434,27.941064 q 0,2.261889 -1.64075,3.527609 -1.64075,1.26572 -4.45346,1.26572 -3.0471,0 -4.68785,-0.785216 v -1.922019 q 1.05477,0.445346 2.29705,0.703178 1.24228,0.257832 2.46112,0.257832 1.99234,0 3.00023,-0.750056 1.00788,-0.761776 1.00788,-2.109534 0,-0.890691 -0.36331,-1.453234 -0.35158,-0.574262 -1.1954,-1.054766 -0.83209,-0.480505 -2.54316,-1.089926 -2.3908,-0.855533 -3.42213,-2.027496 -1.01961,-1.171963 -1.01961,-3.058823 0,-1.980617 1.4884,-3.15258 1.48839,-1.171963 3.93779,-1.171963 2.55488,0 4.69957,0.93757 l -0.62114,1.734505 q -2.12125,-0.890691 -4.12531,-0.890691 -1.58215,0 -2.47284,0.679738 -0.89069,0.679739 -0.89069,1.88686 0,0.890692 0.32815,1.464954 0.32815,0.562542 1.10164,1.043047 0.78522,0.468785 2.39081,1.043047 2.69551,0.96101 3.7034,2.062655 1.01961,1.101645 1.01961,2.859589 z"
         id="path16" />
      <path
         d="m 329.60784,32.5 v -8.356096 q 0,-1.535271 -0.6563,-2.297047 -0.6563,-0.773495 -2.03922,-0.773495 -1.81654,0 -2.68379,1.043047 -0.86725,1.043047 -0.86725,3.211178 V 32.5 h -1.94546 v -8.356096 q 0,-1.535271 -0.6563,-2.297047 -0.6563,-0.773495 -2.05094,-0.773495 -1.82826,0 -2.68379,1.101645 -0.84381,1.089925 -0.84381,3.586206 V 32.5 h -1.94546 V 19.655286 h 1.58215 l 0.31643,1.757945 h 0.0937 q 0.55083,-0.937571 1.547,-1.464954 1.00788,-0.527383 2.25016,-0.527383 3.01195,0 3.9378,2.179851 h 0.0938 q 0.57426,-1.007888 1.66418,-1.59387 1.08993,-0.585981 2.48457,-0.585981 2.17985,0 3.25805,1.125084 1.08993,1.113365 1.08993,3.574487 V 32.5 Z"
         id="path18" />
      <path
         d="m 343.46044,32.5 -0.38675,-1.828262 h -0.0937 q -0.96101,1.207122 -1.92202,1.640748 -0.94929,0.421907 -2.37909,0.421907 -1.9103,0 -3.00022,-0.984449 -1.07821,-0.984449 -1.07821,-2.800992 0,-3.890917 6.22312,-4.078431 l 2.17986,-0.07032 v -0.796935 q 0,-1.511832 -0.6563,-2.22673 -0.64458,-0.726617 -2.07438,-0.726617 -1.60559,0 -3.63308,0.984449 l -0.5977,-1.488393 q 0.94929,-0.515663 2.07437,-0.808654 1.1368,-0.292991 2.27361,-0.292991 2.29705,0 3.39869,1.019608 1.11337,1.019608 1.11337,3.269776 V 32.5 Z m -4.39486,-1.371197 q 1.81654,0 2.84787,-0.996168 1.04305,-0.996169 1.04305,-2.789272 V 26.18312 l -1.94546,0.08204 q -2.32049,0.08204 -3.35182,0.726617 -1.0196,0.63286 -1.0196,1.980618 0,1.054766 0.63286,1.605589 0.64458,0.550822 1.7931,0.550822 z"
         id="path20" />
      <path
         d="m 350.85553,32.5 h -1.94546 V 14.264257 h 1.94546 z"
         id="path22" />
      <path
         d="m 356.9263,32.5 h -1.94546 V 14.264257 h 1.94546 z"
         id="path24" />
      <path
         d="m 377.24813,27.941064 q 0,2.261889 -1.64075,3.527609 -1.64074,1.26572 -4.45345,1.26572 -3.04711,0 -4.68786,-0.785216 v -1.922019 q 1.05477,0.445346 2.29705,0.703178 1.24228,0.257832 2.46112,0.257832 1.99234,0 3.00023,-0.750056 1.00789,-0.761776 1.00789,-2.109534 0,-0.890691 -0.36331,-1.453234 -0.35159,-0.574262 -1.1954,-1.054766 -0.8321,-0.480505 -2.54316,-1.089926 -2.39081,-0.855533 -3.42214,-2.027496 -1.0196,-1.171963 -1.0196,-3.058823 0,-1.980617 1.48839,-3.15258 1.48839,-1.171963 3.93779,-1.171963 2.55488,0 4.69958,0.93757 l -0.62114,1.734505 q -2.12126,-0.890691 -4.12531,-0.890691 -1.58215,0 -2.47285,0.679738 -0.89069,0.679739 -0.89069,1.88686 0,0.890692 0.32815,1.464954 0.32815,0.562542 1.10165,1.043047 0.78521,0.468785 2.3908,1.043047 2.69552,0.96101 3.7034,2.062655 1.01961,1.101645 1.01961,2.859589 z"
         id="path26" />
      <path
         d="m 388.35834,32.5 -0.38675,-1.828262 h -0.0938 q -0.96101,1.207122 -1.92202,1.640748 -0.94929,0.421907 -2.37908,0.421907 -1.9103,0 -3.00023,-0.984449 -1.0782,-0.984449 -1.0782,-2.800992 0,-3.890917 6.22312,-4.078431 l 2.17985,-0.07032 v -0.796935 q 0,-1.511832 -0.6563,-2.22673 -0.64458,-0.726617 -2.07437,-0.726617 -1.60559,0 -3.63309,0.984449 l -0.5977,-1.488393 q 0.94929,-0.515663 2.07438,-0.808654 1.1368,-0.292991 2.2736,-0.292991 2.29705,0 3.3987,1.019608 1.11336,1.019608 1.11336,3.269776 V 32.5 Z m -4.39486,-1.371197 q 1.81654,0 2.84787,-0.996168 1.04304,-0.996169 1.04304,-2.789272 V 26.18312 l -1.94546,0.08204 q -2.32048,0.08204 -3.35181,0.726617 -1.01961,0.63286 -1.01961,1.980618 0,1.054766 0.63286,1.605589 0.64458,0.550822 1.79311,0.550822 z"
         id="path28" />
      <path
         d="m 397.95672,31.128803 q 0.51566,0 0.99617,-0.07032 0.4805,-0.08204 0.76177,-0.164075 v 1.488393 q -0.31643,0.152355 -0.93757,0.246112 -0.60942,0.105477 -1.10164,0.105477 -3.72684,0 -3.72684,-3.926076 v -7.641198 h -1.83999 v -0.937571 l 1.83999,-0.808654 0.82037,-2.742393 h 1.12508 v 2.976785 h 3.72685 v 1.511833 h -3.72685 v 7.55916 q 0,1.160244 0.55083,1.781384 0.55082,0.62114 1.51183,0.62114 z"
         id="path30" />
      <path
         d="m 407.70745,32.734393 q -2.84787,0 -4.50034,-1.734506 -1.64075,-1.734505 -1.64075,-4.816767 0,-3.105702 1.52355,-4.933964 1.53528,-1.828262 4.11359,-1.828262 2.41425,0 3.8206,1.593869 1.40636,1.58215 1.40636,4.183908 v 1.230561 h -8.84832 q 0.0586,2.261889 1.1368,3.433851 1.08993,1.171963 3.05883,1.171963 2.07437,0 4.10187,-0.867252 v 1.734505 q -1.03133,0.445346 -1.95718,0.63286 -0.91413,0.199234 -2.21501,0.199234 z m -0.52739,-11.684471 q -1.54699,0 -2.47284,1.007888 -0.91413,1.007889 -1.0782,2.789272 h 6.71534 q 0,-1.839982 -0.82037,-2.812711 -0.82037,-0.984449 -2.34393,-0.984449 z"
         id="path32" />
      <path
         d="m 417.69257,32.5 h -1.94546 V 14.264257 h 1.94546 z"
         id="path34" />
      <path
         d="m 423.76334,32.5 h -1.94546 V 14.264257 h 1.94546 z"
         id="path36" />
      <path
         d="m 429.83411,32.5 h -1.94546 V 19.655286 h 1.94546 z m -2.10953,-16.325443 q 0,-0.668019 0.32815,-0.97273 0.32815,-0.31643 0.82037,-0.31643 0.46879,0 0.80865,0.31643 0.33987,0.31643 0.33987,0.97273 0,0.656299 -0.33987,0.984448 -0.33986,0.31643 -0.80865,0.31643 -0.49222,0 -0.82037,-0.31643 -0.32815,-0.328149 -0.32815,-0.984448 z"
         id="path38" />
      <path
         d="m 438.10816,31.128803 q 0.51567,0 0.99617,-0.07032 0.48051,-0.08204 0.76178,-0.164075 v 1.488393 q -0.31643,0.152355 -0.93757,0.246112 -0.60942,0.105477 -1.10165,0.105477 -3.72684,0 -3.72684,-3.926076 v -7.641198 h -1.83998 v -0.937571 l 1.83998,-0.808654 0.82037,-2.742393 h 1.12509 v 2.976785 h 3.72684 v 1.511833 h -3.72684 v 7.55916 q 0,1.160244 0.55082,1.781384 0.55082,0.62114 1.51183,0.62114 z"
         id="path40" />
      <path
         d="m 447.8589,32.734393 q -2.84787,0 -4.50034,-1.734506 -1.64075,-1.734505 -1.64075,-4.816767 0,-3.105702 1.52356,-4.933964 1.53527,-1.828262 4.11359,-1.828262 2.41424,0 3.82059,1.593869 1.40636,1.58215 1.40636,4.183908 v 1.230561 h -8.84832 q 0.0586,2.261889 1.1368,3.433851 1.08993,1.171963 3.05883,1.171963 2.07437,0 4.10187,-0.867252 v 1.734505 q -1.03133,0.445346 -1.95718,0.63286 -0.91413,0.199234 -2.21501,0.199234 z m -0.52738,-11.684471 q -1.547,0 -2.47285,1.007888 -0.91413,1.007889 -1.0782,2.789272 h 6.71535 q 0,-1.839982 -0.82038,-2.812711 -0.82037,-0.984449 -2.34392,-0.984449 z"
         id="path42" />
      <path
         d="M 462.4264,32.5 V 15.365902 h 1.99234 v 15.329275 h 7.55916 V 32.5 Z"
         id="path44" />
      <path
         d="m 482.4904,32.5 -0.38675,-1.828262 h -0.0937 q -0.96101,1.207122 -1.92202,1.640748 -0.94929,0.421907 -2.37909,0.421907 -1.9103,0 -3.00022,-0.984449 -1.07821,-0.984449 -1.07821,-2.800992 0,-3.890917 6.22313,-4.078431 l 2.17985,-0.07032 v -0.796935 q 0,-1.511832 -0.6563,-2.22673 -0.64458,-0.726617 -2.07438,-0.726617 -1.60559,0 -3.63308,0.984449 l -0.5977,-1.488393 q 0.94929,-0.515663 2.07437,-0.808654 1.1368,-0.292991 2.27361,-0.292991 2.29705,0 3.39869,1.019608 1.11337,1.019608 1.11337,3.269776 V 32.5 Z m -4.39486,-1.371197 q 1.81654,0 2.84787,-0.996168 1.04305,-0.996169 1.04305,-2.789272 V 26.18312 l -1.94546,0.08204 q -2.32049,0.08204 -3.35181,0.726617 -1.01961,0.63286 -1.01961,1.980618 0,1.054766 0.63286,1.605589 0.64458,0.550822 1.7931,0.550822 z"
         id="path46" />
      <path
         d="m 493.91705,19.444333 q 2.53144,0 3.92607,1.734505 1.40636,1.722786 1.40636,4.887086 0,3.164299 -1.41808,4.922244 -1.40635,1.746225 -3.91435,1.746225 -1.254,0 -2.29705,-0.457066 -1.03133,-0.468785 -1.73451,-1.429795 h -0.14063 L 489.33467,32.5 h -1.39463 V 14.264257 h 1.94545 v 4.43002 q 0,1.488393 -0.0937,2.672075 h 0.0937 q 1.35948,-1.922019 4.03156,-1.922019 z m -0.28128,1.629029 q -1.99233,0 -2.8713,1.148523 -0.87898,1.136804 -0.87898,3.844039 0,2.707234 0.90241,3.879197 0.90242,1.160243 2.89475,1.160243 1.79311,0 2.67208,-1.300879 0.87897,-1.312598 0.87897,-3.762001 0,-2.508 -0.87897,-3.738561 -0.87897,-1.230561 -2.71896,-1.230561 z"
         id="path48" />
    </g>
  </g>
</svg>
