<svg version="1.1" xmlns="http://www.w3.org/2000/svg" viewBox="0 0 1560.8067782733822 757.6015502849843" width="1560.8067782733822" height="757.6015502849843">
  <!-- svg-source:excalidraw -->
  
  <defs>
    <style class="style-fonts">
      @font-face {
        font-family: "Virgil";
        src: url("https://excalidraw.com/Virgil.woff2");
      }
      @font-face {
        font-family: "Cascadia";
        src: url("https://excalidraw.com/Cascadia.woff2");
      }
      @font-face {
        font-family: "Assistant";
        src: url("https://excalidraw.com/Assistant-Regular.woff2");
      }
    </style>
    
  </defs>
  <rect x="0" y="0" width="1560.8067782733822" height="757.6015502849843" fill="#ffffff"></rect><g stroke-linecap="round" transform="translate(352.0771994278873 10) rotate(0 599.3647894227474 198.00000000000003)"><path d="M32 0 C443.53 -2.59, 854.1 -2.7, 1166.73 0 M32 0 C380.87 3.81, 730.3 3.33, 1166.73 0 M1166.73 0 C1186.67 1.36, 1197.29 9.39, 1198.73 32 M1166.73 0 C1190.05 -1.13, 1196.91 8.55, 1198.73 32 M1198.73 32 C1198.26 112.37, 1197.61 193.25, 1198.73 364 M1198.73 32 C1199.38 130.8, 1199.55 230.37, 1198.73 364 M1198.73 364 C1198.51 385.98, 1189.61 395.88, 1166.73 396 M1198.73 364 C1200.86 386.27, 1186.03 394.27, 1166.73 396 M1166.73 396 C771.93 398.78, 378.18 399.28, 32 396 M1166.73 396 C800.65 392.3, 434.8 392.2, 32 396 M32 396 C11 397.93, -0.02 385.44, 0 364 M32 396 C10.29 397.6, -1.06 385.35, 0 364 M0 364 C-0.92 239.18, 1.48 117.3, 0 32 M0 364 C1.72 235.25, 2.41 105.15, 0 32 M0 32 C0.5 10.4, 12.09 0.24, 32 0 M0 32 C0.38 9.02, 10.7 -2.09, 32 0" stroke="#1e1e1e" stroke-width="2" fill="none"></path></g><g transform="translate(818.4919919023926 15) rotate(0 132.9499969482422 12.5)"><text x="132.9499969482422" y="17.52" font-family="Virgil, Segoe UI Emoji" font-size="20px" fill="#1e1e1e" text-anchor="middle" style="white-space: pre;" direction="ltr" dominant-baseline="alphabetic">NTNU Semi-managed server</text></g><g stroke-linecap="round" transform="translate(776.5309426961296 59.33136409059517) rotate(0 377 163.5)"><path d="M32 0 C190.94 1.2, 350.36 0.65, 722 0 C745.6 2.01, 757.38 8.59, 754 32 C754.27 133.84, 752.24 233.13, 754 295 C750.58 314.65, 746.87 326.58, 722 327 C496.2 329.1, 269.84 330.51, 32 327 C11.24 328.14, -0.9 315.66, 0 295 C-1.2 188.74, 1.32 86.45, 0 32 C-0.05 10.65, 11.67 0.34, 32 0" stroke="none" stroke-width="0" fill="#a5d8ff"></path><path d="M32 0 C173.66 0.22, 313.44 -0.76, 722 0 M32 0 C232.13 -2.32, 431.88 -2.52, 722 0 M722 0 C743.81 1.37, 754.07 11.39, 754 32 M722 0 C743.95 0.42, 753.81 12.37, 754 32 M754 32 C754.85 125.28, 755.08 218.94, 754 295 M754 32 C755.39 106.9, 754.77 180.5, 754 295 M754 295 C753.09 316.46, 744.61 325.79, 722 327 M754 295 C753.76 314.76, 745.34 325.66, 722 327 M722 327 C531.62 328.83, 342.43 328.42, 32 327 M722 327 C526.78 326.82, 331.45 327.26, 32 327 M32 327 C10.19 326.48, -1.05 315.47, 0 295 M32 327 C9.28 326.92, -0.75 316.37, 0 295 M0 295 C-2.28 212.55, -2.97 128.99, 0 32 M0 295 C-2.26 219.51, -2.01 142.73, 0 32 M0 32 C-0.51 9.45, 9.76 0.72, 32 0 M0 32 C-1.69 9.71, 12.17 -2.06, 32 0" stroke="#1971c2" stroke-width="2" fill="none"></path></g><g transform="translate(1075.8476083455437 64.33136409059517) rotate(0 77.68333435058594 25)"><text x="77.68333435058594" y="17.52" font-family="Virgil, Segoe UI Emoji" font-size="20px" fill="#1971c2" text-anchor="middle" style="white-space: pre;" direction="ltr" dominant-baseline="alphabetic">Docker Compose</text><text x="77.68333435058594" y="42.519999999999996" font-family="Virgil, Segoe UI Emoji" font-size="20px" fill="#1971c2" text-anchor="middle" style="white-space: pre;" direction="ltr" dominant-baseline="alphabetic">Outreach</text></g><g stroke-linecap="round" transform="translate(798.5309426961296 133.33136409059517) rotate(0 123 117.5)"><path d="M32 0 C87.71 -1.56, 140.04 -2.52, 214 0 C234.03 2.31, 245.06 9.45, 246 32 C251.14 69.75, 245.11 110.82, 246 203 C248.28 226.98, 236.1 236.26, 214 235 C165.41 234.41, 113.79 235.02, 32 235 C13.46 238.26, 0.12 224.42, 0 203 C-2.81 143.76, -2.26 86.73, 0 32 C1.11 13.36, 8.66 -2.65, 32 0" stroke="none" stroke-width="0" fill="#a5d8ff"></path><path d="M32 0 C79 -0.64, 128.56 0.61, 214 0 M32 0 C78.33 0.35, 124.74 -0.13, 214 0 M214 0 C236.75 -1.57, 247.13 11.8, 246 32 M214 0 C234.93 0.27, 247.57 9.82, 246 32 M246 32 C244.25 71.83, 242.72 113.76, 246 203 M246 32 C248.11 94.86, 246.86 158.6, 246 203 M246 203 C244.99 223.76, 235.15 234.31, 214 235 M246 203 C247.13 224.34, 233.37 237.02, 214 235 M214 235 C143.21 235.43, 71.36 236.58, 32 235 M214 235 C166.91 233.95, 120.06 233.71, 32 235 M32 235 C11.3 234.7, 1 223.54, 0 203 M32 235 C9.83 233.37, 0.89 226.35, 0 203 M0 203 C1.27 140.62, -1.95 81.19, 0 32 M0 203 C-0.15 137.23, 1.3 70.12, 0 32 M0 32 C0.56 11.6, 9.65 -0.7, 32 0 M0 32 C1.88 12.47, 9.98 0.32, 32 0" stroke="#1971c2" stroke-width="2" fill="none"></path></g><g transform="translate(839.3726098714226 138.33136409059517) rotate(0 82.15833282470703 25)"><text x="82.15833282470703" y="17.52" font-family="Virgil, Segoe UI Emoji" font-size="20px" fill="#1971c2" text-anchor="middle" style="white-space: pre;" direction="ltr" dominant-baseline="alphabetic">frontend:3000</text><text x="82.15833282470703" y="42.519999999999996" font-family="Virgil, Segoe UI Emoji" font-size="20px" fill="#1971c2" text-anchor="middle" style="white-space: pre;" direction="ltr" dominant-baseline="alphabetic">Docker container</text></g><g stroke-linecap="round" transform="translate(1264.5309426961296 124.33136409059517) rotate(0 123 117.5)"><path d="M32 0 C91.97 5.27, 152.02 3.21, 214 0 C234.91 3.08, 247.52 12.54, 246 32 C247.27 74.18, 245.02 111.1, 246 203 C247.66 220.81, 235.22 236.48, 214 235 C171.09 240.33, 127.67 235.38, 32 235 C13.96 232.35, 2.37 226.08, 0 203 C-0.58 156.84, -3.23 117.47, 0 32 C3.27 13.77, 8.79 -0.94, 32 0" stroke="none" stroke-width="0" fill="#a5d8ff"></path><path d="M32 0 C79.66 0.71, 125.37 -0.99, 214 0 M32 0 C88.21 1.23, 142.64 0.49, 214 0 M214 0 C236.03 -1.7, 246.25 10.28, 246 32 M214 0 C233.44 -0.71, 244.98 10.43, 246 32 M246 32 C246.19 81.51, 243.69 132.64, 246 203 M246 32 C245.43 84.79, 246.24 138.62, 246 203 M246 203 C245.21 224.57, 234.74 236.64, 214 235 M246 203 C247.44 222.56, 233.06 234.85, 214 235 M214 235 C174.88 234.69, 132.53 234, 32 235 M214 235 C145.04 235.44, 75.69 235.67, 32 235 M32 235 C10.39 234.17, 0.51 225.28, 0 203 M32 235 C12.21 233.28, -1.44 223.12, 0 203 M0 203 C1.11 143.96, -1.11 85.66, 0 32 M0 203 C0 164.8, -0.43 127.87, 0 32 M0 32 C-0.02 9.05, 11.81 1.87, 32 0 M0 32 C0.86 9.8, 9.1 0.5, 32 0" stroke="#1971c2" stroke-width="2" fill="none"></path></g><g transform="translate(1305.3726098714226 129.33136409059517) rotate(0 82.15833282470703 25)"><text x="82.15833282470703" y="17.52" font-family="Virgil, Segoe UI Emoji" font-size="20px" fill="#1971c2" text-anchor="middle" style="white-space: pre;" direction="ltr" dominant-baseline="alphabetic">backend:1337</text><text x="82.15833282470703" y="42.519999999999996" font-family="Virgil, Segoe UI Emoji" font-size="20px" fill="#1971c2" text-anchor="middle" style="white-space: pre;" direction="ltr" dominant-baseline="alphabetic">Docker container</text></g><g stroke-linecap="round" transform="translate(1308.9684426961296 191.17511409059517) rotate(0 80.5 68)"><path d="M32 0 C55.33 -4.06, 86.53 -0.49, 129 0 C149.49 3.42, 163.78 7.86, 161 32 C163.24 60.92, 159.97 81.29, 161 104 C160.61 126.06, 151.19 133.63, 129 136 C97.58 140.74, 66.2 141.17, 32 136 C8.38 137.46, -0.25 122.38, 0 104 C-1.91 79.93, 2.66 53.03, 0 32 C0.43 13.35, 7.91 -2.5, 32 0" stroke="none" stroke-width="0" fill="#9775fa"></path><path d="M32 0 C55.4 -1.86, 76.95 1.67, 129 0 M32 0 C66.11 -1.08, 99.09 0.51, 129 0 M129 0 C152.29 -0.01, 159.83 12.51, 161 32 M129 0 C149.96 1.62, 162.55 9.27, 161 32 M161 32 C159.61 51.25, 162.04 68.22, 161 104 M161 32 C160.72 53, 159.71 74.01, 161 104 M161 104 C161.46 127.14, 150.45 134.72, 129 136 M161 104 C161.7 126.31, 152.05 135.93, 129 136 M129 136 C90.65 135.16, 56.97 136.68, 32 136 M129 136 C97.98 135.24, 69.2 135.27, 32 136 M32 136 C8.68 137.67, 1.72 123.63, 0 104 M32 136 C10.39 135.76, 1.56 127.13, 0 104 M0 104 C-0.21 75.16, 1.54 48.81, 0 32 M0 104 C0.9 75.36, 1.12 47.1, 0 32 M0 32 C1.27 10.61, 11.73 -0.24, 32 0 M0 32 C-0.38 9.38, 11.72 -1.76, 32 0" stroke="#1e1e1e" stroke-width="2" fill="none"></path></g><g transform="translate(1359.6434419331902 246.67511409059517) rotate(0 29.825000762939453 12.5)"><text x="29.825000762939453" y="17.52" font-family="Virgil, Segoe UI Emoji" font-size="20px" fill="#1e1e1e" text-anchor="middle" style="white-space: pre;" direction="ltr" dominant-baseline="alphabetic">Strapi</text></g><g stroke-linecap="round" transform="translate(836.9684426961296 188.17511409059517) rotate(0 80.5 68)"><path d="M32 0 C58.49 3.13, 81.33 -2.07, 129 0 C147.96 -0.7, 162.32 13.11, 161 32 C162.64 61.24, 164.25 83.85, 161 104 C161.31 123.92, 148.58 134.51, 129 136 C90.42 137.5, 56.55 131.61, 32 136 C9.04 135.93, -0.99 125.12, 0 104 C1.19 84.13, 2.26 62.52, 0 32 C-2.67 9.06, 11.91 3.34, 32 0" stroke="none" stroke-width="0" fill="#1e1e1e"></path><path d="M32 0 C69.35 1.07, 109.68 1.46, 129 0 M32 0 C69.9 0.64, 105.24 -0.78, 129 0 M129 0 C152.13 -0.99, 162.51 11.78, 161 32 M129 0 C148.22 0.39, 158.87 12.27, 161 32 M161 32 C161.98 55.34, 161.86 78.87, 161 104 M161 32 C160.42 53.13, 161.02 74.21, 161 104 M161 104 C159.85 123.79, 148.75 136.23, 129 136 M161 104 C160.08 125.23, 150.79 136.91, 129 136 M129 136 C98.73 134.51, 63.63 134.32, 32 136 M129 136 C92.17 136.69, 54.69 136.09, 32 136 M32 136 C10.56 137.86, 1.8 126.97, 0 104 M32 136 C8.99 134.34, -1.1 125.94, 0 104 M0 104 C0.99 81.2, 2.21 57.93, 0 32 M0 104 C1.01 78.23, 0.78 51.76, 0 32 M0 32 C0.9 11.92, 10.64 -0.4, 32 0 M0 32 C1.35 12.34, 8.47 -0.7, 32 0" stroke="#ffffff" stroke-width="2" fill="none"></path></g><g transform="translate(882.8351075826042 243.67511409059517) rotate(0 34.63333511352539 12.5)"><text x="34.63333511352539" y="17.52" font-family="Virgil, Segoe UI Emoji" font-size="20px" fill="#ffffff" text-anchor="middle" style="white-space: pre;" direction="ltr" dominant-baseline="alphabetic">Next.js</text></g><g stroke-linecap="round" transform="translate(386.9684426961296 161.17511409059517) rotate(0 80.5 68)"><path d="M32 0 C60.66 -0.83, 81.42 0.97, 129 0 C148.92 -1.41, 162.02 8.72, 161 32 C159.4 49.73, 160.55 70.05, 161 104 C162.47 124.97, 150.08 134.41, 129 136 C111.69 132.8, 91.2 135.38, 32 136 C12.07 133.67, 1.79 122.33, 0 104 C-0.99 88.67, -1.69 67.09, 0 32 C-2.84 7.94, 12.81 -2.52, 32 0" stroke="none" stroke-width="0" fill="#ffd8a8"></path><path d="M32 0 C67.69 1.03, 99.29 1.25, 129 0 M32 0 C50.67 0.94, 71.49 -0.28, 129 0 M129 0 C149.67 0.19, 162.29 8.9, 161 32 M129 0 C152.12 2.21, 162.13 10.78, 161 32 M161 32 C161.24 57.71, 161.03 85.21, 161 104 M161 32 C160.34 57.58, 161.83 82.14, 161 104 M161 104 C162.33 124.97, 149.86 137.02, 129 136 M161 104 C161.35 123.4, 150.62 138.06, 129 136 M129 136 C95.57 136.3, 59.64 136.78, 32 136 M129 136 C93.38 135.85, 58.57 134.93, 32 136 M32 136 C10.76 137.55, -1.72 126.25, 0 104 M32 136 C11.59 134.49, 0.08 124.71, 0 104 M0 104 C-1.26 81.09, -2.52 61.95, 0 32 M0 104 C-0.14 74.97, 0.23 48.39, 0 32 M0 32 C1.53 12.44, 12.04 1.75, 32 0 M0 32 C-0.58 9.69, 8.57 -0.17, 32 0" stroke="#1e1e1e" stroke-width="2" fill="none"></path></g><g transform="translate(397.5601098714226 204.17511409059517) rotate(0 69.90833282470703 25)"><text x="69.90833282470703" y="17.52" font-family="Virgil, Segoe UI Emoji" font-size="20px" fill="#1e1e1e" text-anchor="middle" style="white-space: pre;" direction="ltr" dominant-baseline="alphabetic">Apache</text><text x="69.90833282470703" y="42.519999999999996" font-family="Virgil, Segoe UI Emoji" font-size="20px" fill="#1e1e1e" text-anchor="middle" style="white-space: pre;" direction="ltr" dominant-baseline="alphabetic">Reverse Proxy</text></g><g stroke-linecap="round" transform="translate(10 161.3480719751447) rotate(0 80.5 68)"><path d="M32 0 C71.36 0.26, 111.31 0.48, 129 0 M32 0 C54.96 0.52, 78.18 0.45, 129 0 M129 0 C151.49 1.56, 159.34 10.37, 161 32 M129 0 C152.36 1.28, 159.24 9.87, 161 32 M161 32 C159.91 52.54, 161.44 76.27, 161 104 M161 32 C160.15 60.53, 159.84 87.72, 161 104 M161 104 C159.45 125.88, 151.09 136.15, 129 136 M161 104 C160.18 125.25, 149.48 136.66, 129 136 M129 136 C92.48 137.69, 55.83 134.81, 32 136 M129 136 C101.21 136.91, 70.69 136.01, 32 136 M32 136 C9.11 136.22, -1.26 124.51, 0 104 M32 136 C12.67 136.58, -0.31 123.22, 0 104 M0 104 C1.32 78.08, -0.74 50.2, 0 32 M0 104 C0.22 75.67, 0.47 49.25, 0 32 M0 32 C-0.62 12.3, 11.97 -0.34, 32 0 M0 32 C1.34 10.98, 12.16 -1.45, 32 0" stroke="#1e1e1e" stroke-width="2" fill="none"></path></g><g transform="translate(20.050003051757812 216.8480719751447) rotate(0 70.44999694824219 12.5)"><text x="70.44999694824219" y="17.52" font-family="Virgil, Segoe UI Emoji" font-size="20px" fill="#1e1e1e" text-anchor="middle" style="white-space: pre;" direction="ltr" dominant-baseline="alphabetic">Client Browser</text></g><g stroke-linecap="round" transform="translate(832.5266401159536 611.6015502849843) rotate(0 80.5 68)"><path d="M32 0 C50.78 -0.25, 72.27 1.6, 129 0 M32 0 C67.1 -0.53, 102.62 -1.85, 129 0 M129 0 C151.58 -0.18, 159.65 10.78, 161 32 M129 0 C148.14 -2.13, 162 11.3, 161 32 M161 32 C160.09 53.26, 158.69 75.28, 161 104 M161 32 C162.64 53.04, 160.91 75.35, 161 104 M161 104 C162 125.49, 148.82 137.55, 129 136 M161 104 C160.72 124.12, 150.37 134.18, 129 136 M129 136 C93.14 137.01, 58.94 133.94, 32 136 M129 136 C108.01 134.92, 87.58 136.06, 32 136 M32 136 C12.12 137.56, -0.52 124.04, 0 104 M32 136 C11.55 133.93, -0.72 124.86, 0 104 M0 104 C0.67 77.43, 0.15 55.63, 0 32 M0 104 C-0.43 82.27, -0.39 61.27, 0 32 M0 32 C1.04 11.66, 11.24 0.67, 32 0 M0 32 C0.99 12.7, 12.69 1.61, 32 0" stroke="#1e1e1e" stroke-width="2" fill="none"></path></g><g transform="translate(863.7099744665395 667.1015502849843) rotate(0 49.31666564941406 12.5)"><text x="49.31666564941406" y="17.52" font-family="Virgil, Segoe UI Emoji" font-size="20px" fill="#1e1e1e" text-anchor="middle" style="white-space: pre;" direction="ltr" dominant-baseline="alphabetic">CelesTrak</text></g><g mask="url(#mask-pHM_VgIknMVg2gQvDsKhq)" stroke-linecap="round"><g transform="translate(1045.5309426961296 245.8816345312385) rotate(0 109 -0.9261174395445835)"><path d="M1.17 -0.18 C37.35 -0.46, 181.01 -2.67, 217.11 -2.79 M0.32 -1.32 C36.88 -1.39, 183.26 -1.51, 219.35 -1.75" stroke="#1e1e1e" stroke-width="2" fill="none"></path></g><g transform="translate(1045.5309426961296 245.8816345312385) rotate(0 109 -0.9261174395445835)"><path d="M24.55 -9.03 C17.13 -7.62, 8.82 -3.87, 1.17 -0.18 M24.55 -9.03 C15.96 -6.48, 7.64 -3.07, 1.17 -0.18" stroke="#1e1e1e" stroke-width="2" fill="none"></path></g><g transform="translate(1045.5309426961296 245.8816345312385) rotate(0 109 -0.9261174395445835)"><path d="M24.77 8.07 C17.44 4.33, 9.06 2.93, 1.17 -0.18 M24.77 8.07 C16.15 4.14, 7.75 1.08, 1.17 -0.18" stroke="#1e1e1e" stroke-width="2" fill="none"></path></g><g transform="translate(1045.5309426961296 245.8816345312385) rotate(0 109 -0.9261174395445835)"><path d="M195.89 6.88 C202.73 2.57, 208.52 1.05, 219.35 -1.75 M195.89 6.88 C205.09 2.91, 214.5 -0.29, 219.35 -1.75" stroke="#1e1e1e" stroke-width="2" fill="none"></path></g><g transform="translate(1045.5309426961296 245.8816345312385) rotate(0 109 -0.9261174395445835)"><path d="M195.83 -10.23 C202.54 -9.39, 208.35 -5.75, 219.35 -1.75 M195.83 -10.23 C204.99 -7.72, 214.42 -4.45, 219.35 -1.75" stroke="#1e1e1e" stroke-width="2" fill="none"></path></g></g><mask id="mask-pHM_VgIknMVg2gQvDsKhq"><rect x="0" y="0" fill="#fff" width="1363.5309426961296" height="347.73386941032766"></rect><rect x="1099.639276283776" y="219.955517091694" fill="#000" width="109.78333282470703" height="50" opacity="1"></rect></mask><g transform="translate(1099.639276283776 219.955517091694) rotate(0 55.730168400797936 24.438408885523643)"><text x="54.891666412353516" y="17.52" font-family="Virgil, Segoe UI Emoji" font-size="20px" fill="#1e1e1e" text-anchor="middle" style="white-space: pre;" direction="ltr" dominant-baseline="alphabetic">ApolloClient</text><text x="54.891666412353516" y="42.519999999999996" font-family="Virgil, Segoe UI Emoji" font-size="20px" fill="#1e1e1e" text-anchor="middle" style="white-space: pre;" direction="ltr" dominant-baseline="alphabetic">GraphQL</text></g><g mask="url(#mask-eNTjchcwfzcKTWjzBz4p4)" stroke-linecap="round"><g transform="translate(172 230.61807644875233) rotate(0 106.34359634806482 1.4142783714082157)"><path d="M-0.44 0.71 C35.28 1, 178.28 1.69, 213.88 2.24 M1.52 0.03 C37.23 0.44, 178.37 3.1, 213.56 3.47" stroke="#1e1e1e" stroke-width="2" fill="none"></path></g><g transform="translate(172 230.61807644875233) rotate(0 106.34359634806482 1.4142783714082157)"><path d="M23.1 -7.69 C18.13 -3.58, 9.79 -2.52, -0.44 0.71 M23.1 -7.69 C12.79 -4.79, 3.59 -0.91, -0.44 0.71" stroke="#1e1e1e" stroke-width="2" fill="none"></path></g><g transform="translate(172 230.61807644875233) rotate(0 106.34359634806482 1.4142783714082157)"><path d="M22.99 9.41 C17.98 9.03, 9.67 5.6, -0.44 0.71 M22.99 9.41 C12.64 5.51, 3.48 2.58, -0.44 0.71" stroke="#1e1e1e" stroke-width="2" fill="none"></path></g><g transform="translate(172 230.61807644875233) rotate(0 106.34359634806482 1.4142783714082157)"><path d="M189.94 11.67 C197.3 11.59, 201.35 8.3, 213.56 3.47 M189.94 11.67 C198.32 8.37, 207.89 5.64, 213.56 3.47" stroke="#1e1e1e" stroke-width="2" fill="none"></path></g><g transform="translate(172 230.61807644875233) rotate(0 106.34359634806482 1.4142783714082157)"><path d="M190.2 -5.43 C197.55 -1.01, 201.54 0.18, 213.56 3.47 M190.2 -5.43 C198.56 -1.93, 208.03 2.15, 213.56 3.47" stroke="#1e1e1e" stroke-width="2" fill="none"></path></g></g><mask id="mask-eNTjchcwfzcKTWjzBz4p4"><rect x="0" y="0" fill="#fff" width="484.6871926961296" height="333.44663319156876"></rect><rect x="222.0352619974789" y="207.03235482016055" fill="#000" width="112.61666870117188" height="50" opacity="1"></rect></mask><g transform="translate(222.03526199747887 207.03235482016055) rotate(0 56.683641703799374 25.339312275256958)"><text x="56.30833435058594" y="17.52" font-family="Virgil, Segoe UI Emoji" font-size="20px" fill="#1e1e1e" text-anchor="middle" style="white-space: pre;" direction="ltr" dominant-baseline="alphabetic">hypso.space</text><text x="56.30833435058594" y="42.519999999999996" font-family="Virgil, Segoe UI Emoji" font-size="20px" fill="#1e1e1e" text-anchor="middle" style="white-space: pre;" direction="ltr" dominant-baseline="alphabetic">HTTPS:443</text></g><g mask="url(#mask-yVt5quJPcKzmJ5aniHl8v)" stroke-linecap="round"><g transform="translate(548.9684426961296 225.32793472778013) rotate(0 124.28124999999997 2.0922287890521147)"><path d="M0.1 -0.27 C41.27 0.57, 206.35 4.06, 247.83 4.92 M-1.31 -1.45 C40.19 -0.95, 208.54 2.45, 250.15 3.19" stroke="#1e1e1e" stroke-width="2" fill="none"></path></g><g transform="translate(548.9684426961296 225.32793472778013) rotate(0 124.28124999999997 2.0922287890521147)"><path d="M23.76 -8.32 C14.72 -6.61, 7.8 -1.8, 0.1 -0.27 M23.76 -8.32 C15.67 -5.17, 7.64 -2, 0.1 -0.27" stroke="#1e1e1e" stroke-width="2" fill="none"></path></g><g transform="translate(548.9684426961296 225.32793472778013) rotate(0 124.28124999999997 2.0922287890521147)"><path d="M23.4 8.77 C14.51 4.29, 7.72 2.89, 0.1 -0.27 M23.4 8.77 C15.33 5.75, 7.43 2.75, 0.1 -0.27" stroke="#1e1e1e" stroke-width="2" fill="none"></path></g><g transform="translate(548.9684426961296 225.32793472778013) rotate(0 124.28124999999997 2.0922287890521147)"><path d="M226.5 11.29 C234.65 7.11, 244.91 6.05, 250.15 3.19 M226.5 11.29 C235.39 8.61, 244.45 5.95, 250.15 3.19" stroke="#1e1e1e" stroke-width="2" fill="none"></path></g><g transform="translate(548.9684426961296 225.32793472778013) rotate(0 124.28124999999997 2.0922287890521147)"><path d="M226.83 -5.81 C234.84 -3.79, 244.98 1.36, 250.15 3.19 M226.83 -5.81 C235.71 -2.31, 244.66 1.2, 250.15 3.19" stroke="#1e1e1e" stroke-width="2" fill="none"></path></g></g><mask id="mask-yVt5quJPcKzmJ5aniHl8v"><rect x="0" y="0" fill="#fff" width="897.5309426961296" height="329.51239230588436"></rect><rect x="599.3163583455437" y="202.4201635168322" fill="#000" width="147.86666870117188" height="50" opacity="1"></rect></mask><g transform="translate(599.3163583455437 202.4201635168322) rotate(0 74.07274547509851 24.64204726822672)"><text x="73.93333435058594" y="17.52" font-family="Virgil, Segoe UI Emoji" font-size="20px" fill="#1e1e1e" text-anchor="middle" style="white-space: pre;" direction="ltr" dominant-baseline="alphabetic">localhost:3000</text><text x="73.93333435058594" y="42.519999999999996" font-family="Virgil, Segoe UI Emoji" font-size="20px" fill="#1e1e1e" text-anchor="middle" style="white-space: pre;" direction="ltr" dominant-baseline="alphabetic">HTTP</text></g><g mask="url(#mask-Ew6I5kDaXOjyzmnxbIDwl)" stroke-linecap="round"><g transform="translate(916.9110886658564 325.1751140905952) rotate(0 0.9777459483256052 142.3448098098379)"><path d="M1.07 1.1 C1.18 48.72, 1.25 237.71, 1.52 284.93 M0.17 0.63 C0.01 47.94, -0.01 235.44, 0.35 282.94" stroke="#1e1e1e" stroke-width="2" fill="none"></path></g><g transform="translate(916.9110886658564 325.1751140905952) rotate(0 0.9777459483256052 142.3448098098379)"><path d="M9.65 24.58 C8.45 15.22, 3.85 8.44, 1.07 1.1 M9.65 24.58 C7.11 18.86, 5.68 10.6, 1.07 1.1" stroke="#1e1e1e" stroke-width="2" fill="none"></path></g><g transform="translate(916.9110886658564 325.1751140905952) rotate(0 0.9777459483256052 142.3448098098379)"><path d="M-7.45 24.6 C-2.3 15.08, -0.56 8.29, 1.07 1.1 M-7.45 24.6 C-5.25 18.99, -1.94 10.73, 1.07 1.1" stroke="#1e1e1e" stroke-width="2" fill="none"></path></g><g transform="translate(916.9110886658564 325.1751140905952) rotate(0 0.9777459483256052 142.3448098098379)"><path d="M-8.28 259.47 C-3.41 267.38, -1.63 278.03, 0.35 282.94 M-8.28 259.47 C-6.34 266.88, -3 271.63, 0.35 282.94" stroke="#1e1e1e" stroke-width="2" fill="none"></path></g><g transform="translate(916.9110886658564 325.1751140905952) rotate(0 0.9777459483256052 142.3448098098379)"><path d="M8.83 259.42 C7.35 267.5, 2.77 278.17, 0.35 282.94 M8.83 259.42 C6.03 266.72, 4.63 271.49, 0.35 282.94" stroke="#1e1e1e" stroke-width="2" fill="none"></path></g></g><mask id="mask-Ew6I5kDaXOjyzmnxbIDwl"><rect x="0" y="0" fill="#fff" width="1018.8665805625076" height="709.8647337102709"></rect><rect x="811.2971674388889" y="430.019923900433" fill="#000" width="213.18333435058594" height="75" opacity="1"></rect></mask><g transform="translate(811.2971674388889 430.019923900433) rotate(0 106.40657074058157 37.93462019540368)"><text x="106.59166717529297" y="17.52" font-family="Virgil, Segoe UI Emoji" font-size="20px" fill="#1e1e1e" text-anchor="middle" style="white-space: pre;" direction="ltr" dominant-baseline="alphabetic">fetch satellite TLE's</text><text x="106.59166717529297" y="42.519999999999996" font-family="Virgil, Segoe UI Emoji" font-size="20px" fill="#1e1e1e" text-anchor="middle" style="white-space: pre;" direction="ltr" dominant-baseline="alphabetic">of satellites </text><text x="106.59166717529297" y="67.52" font-family="Virgil, Segoe UI Emoji" font-size="20px" fill="#1e1e1e" text-anchor="middle" style="white-space: pre;" direction="ltr" dominant-baseline="alphabetic">registered in Strapi</text></g><g mask="url(#mask-KHQyk6XBcZ_GGIXzUayxo)" stroke-linecap="round"><g transform="translate(137.2504778648007 298.3480719751447) rotate(0 347.13808112557643 179.97656233065982)"><path d="M1.2 0.45 C116.72 60.61, 578.39 301.33, 693.9 361.07 M0.36 -0.37 C115.62 59.49, 577.24 299.53, 692.75 359.54" stroke="#1e1e1e" stroke-width="2" fill="none"></path></g><g transform="translate(137.2504778648007 298.3480719751447) rotate(0 347.13808112557643 179.97656233065982)"><path d="M25.98 3.72 C17.68 2.14, 9.75 1.47, 1.2 0.45 M25.98 3.72 C20.97 2.92, 15.11 1.41, 1.2 0.45" stroke="#1e1e1e" stroke-width="2" fill="none"></path></g><g transform="translate(137.2504778648007 298.3480719751447) rotate(0 347.13808112557643 179.97656233065982)"><path d="M18.08 18.88 C12.65 11.69, 7.61 5.48, 1.2 0.45 M18.08 18.88 C14.71 14.87, 10.54 10.1, 1.2 0.45" stroke="#1e1e1e" stroke-width="2" fill="none"></path></g><g transform="translate(137.2504778648007 298.3480719751447) rotate(0 347.13808112557643 179.97656233065982)"><path d="M667.96 356.29 C677.75 356.6, 687.93 358.31, 692.75 359.54 M667.96 356.29 C673.63 357.13, 678.41 357.01, 692.75 359.54" stroke="#1e1e1e" stroke-width="2" fill="none"></path></g><g transform="translate(137.2504778648007 298.3480719751447) rotate(0 347.13808112557643 179.97656233065982)"><path d="M675.85 341.12 C682.77 347.04, 690.06 354.29, 692.75 359.54 M675.85 341.12 C679.88 345.18, 682.97 348.32, 692.75 359.54" stroke="#1e1e1e" stroke-width="2" fill="none"></path></g></g><mask id="mask-KHQyk6XBcZ_GGIXzUayxo"><rect x="0" y="0" fill="#fff" width="931.5266401159536" height="758.3011966364643"></rect><rect x="304.9302307433068" y="465.82463430580447" fill="#000" width="358.9166564941406" height="25" opacity="1"></rect></mask><g transform="translate(304.9302307433068 465.82463430580447) rotate(0 179.4507905367762 12.877186392173172)"><text x="179.4583282470703" y="17.52" font-family="Virgil, Segoe UI Emoji" font-size="20px" fill="#1e1e1e" text-anchor="middle" style="white-space: pre;" direction="ltr" dominant-baseline="alphabetic">fetch custom added satellite's TLE</text></g></svg>